<?xml version="1.0" standalone="no"?>
<!DOCTYPE svg PUBLIC "-//W3C//DTD SVG 20010904//EN"
 "http://www.w3.org/TR/2001/REC-SVG-20010904/DTD/svg10.dtd">
<svg version="1.0" xmlns="http://www.w3.org/2000/svg"
 width="705.000000pt" height="705.000000pt" viewBox="0 0 705.000000 705.000000"
 preserveAspectRatio="xMidYMid meet">
<metadata>
Created by potrace 1.11, written by Peter Selinger 2001-2013
</metadata>
<g transform="translate(0.000000,705.000000) scale(0.100000,-0.100000)"
fill="#000000" stroke="none">
<path d="M2026 6005 c-715 -410 -1303 -748 -1307 -752 -7 -7 606 -1522 622
-1538 4 -3 452 672 995 1501 1104 1682 1008 1534 997 1533 -4 0 -593 -335
-1307 -744z"/>
<path d="M3768 6663 c1498 -2287 1937 -2952 1943 -2946 8 9 629 1522 629 1532
-1 6 -2612 1501 -2623 1501 -4 0 19 -39 51 -87z"/>
<path d="M2484 5098 c-571 -871 -1038 -1590 -1038 -1598 0 -23 2076 -3182
2085 -3173 16 16 2079 3166 2079 3174 0 9 -2055 3145 -2075 3167 -10 11 -212
-290 -1051 -1570z m1271 -319 c220 -44 441 -112 570 -176 82 -42 227 -155 331
-260 136 -137 232 -312 263 -476 10 -54 36 -373 45 -537 2 -41 11 -104 20
-140 15 -56 16 -76 6 -148 -14 -93 -26 -97 -55 -14 -14 37 -19 103 -25 302 -8
232 -22 355 -44 377 -8 8 -9 3 -61 -232 -50 -223 -53 -280 -24 -417 11 -48 10
-51 -40 -151 -74 -149 -89 -293 -45 -436 8 -25 14 -57 14 -70 l0 -24 -25 27
c-29 32 -51 33 -82 4 -21 -20 -24 -20 -41 -5 -24 22 -60 22 -84 0 -18 -16 -19
-15 -34 5 -20 29 -59 28 -89 -2 -14 -14 -27 -20 -30 -15 -4 5 3 53 14 107 30
147 41 263 31 328 -10 63 -30 98 -130 234 -80 108 -144 230 -160 308 -16 70
-34 58 -27 -18 l5 -58 -42 -6 c-104 -16 -506 44 -506 75 0 5 7 29 16 55 8 25
13 48 10 51 -11 12 -78 -110 -110 -203 -19 -55 -53 -138 -76 -184 -35 -74 -38
-86 -26 -104 23 -36 94 -84 157 -107 46 -17 57 -24 45 -31 -26 -15 -38 -45
-26 -67 8 -16 5 -21 -20 -30 -28 -9 -35 -22 -31 -62 1 -10 -10 -21 -30 -28
-29 -10 -31 -14 -27 -50 3 -39 3 -39 -18 -23 -124 96 -200 149 -263 185 -107
60 -147 102 -156 160 -7 42 42 536 64 655 10 51 -3 55 -26 7 l-17 -35 -49 75
-50 76 30 32 c16 18 37 42 45 55 l16 23 28 -46 c16 -25 34 -45 39 -45 16 1 77
90 97 143 11 28 28 91 38 141 10 50 37 138 60 195 68 168 65 264 -11 346 -58
63 -110 85 -197 85 -39 0 -74 -4 -77 -10 -4 -6 6 -10 22 -10 37 0 120 -23 160
-43 43 -23 79 -72 93 -130 16 -60 3 -131 -44 -248 -19 -46 -42 -122 -51 -168
-20 -99 -38 -152 -66 -198 l-21 -34 -34 50 c-31 46 -54 64 -54 43 0 -5 -18
-36 -40 -70 -34 -53 -49 -66 -112 -98 -111 -55 -125 -68 -149 -134 -12 -32
-29 -66 -39 -75 -17 -15 -18 -13 -30 35 -7 28 -10 59 -7 70 4 14 -9 32 -50 66
-30 26 -58 43 -62 38 -4 -5 -30 -38 -58 -74 -29 -36 -79 -92 -112 -125 -53
-52 -61 -56 -61 -36 l0 23 -33 -21 c-18 -11 -53 -23 -77 -27 l-45 -7 67 65 67
64 3 335 3 334 43 128 c50 147 87 199 153 217 26 7 55 28 88 63 73 77 123 99
229 100 48 1 139 -5 202 -12 114 -13 116 -13 275 19 277 54 355 57 550 19z
m-1248 -1151 c15 -14 23 -33 23 -56 0 -29 -8 -43 -47 -79 -95 -88 -196 -145
-289 -162 l-49 -9 40 31 c69 54 155 139 223 220 36 42 68 77 70 77 3 0 16 -10
29 -22z m17 -184 c12 -31 6 -264 -10 -386 -28 -218 -10 -328 56 -328 58 0 76
79 39 169 -14 32 -13 34 20 61 45 38 78 46 102 24 57 -52 50 -238 -12 -324
-43 -59 -103 -84 -186 -77 -176 14 -233 145 -259 598 l-7 116 70 37 c38 20 91
56 118 81 56 50 60 51 69 29z m926 -389 l0 -126 -28 15 c-57 30 -58 37 -16
141 22 52 40 95 42 95 1 0 2 -56 2 -125z m1346 -243 c-27 -83 -39 -192 -33
-304 4 -66 3 -109 -3 -113 -6 -3 -10 5 -10 19 0 13 -7 53 -16 88 -12 47 -15
89 -11 163 6 107 22 165 59 216 l23 31 3 -26 c2 -15 -4 -48 -12 -74z m-1213
-36 c-3 -39 -10 -43 -35 -19 -26 26 -18 56 14 51 18 -2 23 -9 21 -32z m-38
-76 c3 -5 -2 -21 -12 -36 l-17 -26 -18 22 c-27 33 -23 50 11 50 17 0 33 -4 36
-10z m-352 -43 c36 -24 91 -66 123 -94 69 -59 83 -65 123 -53 26 7 31 6 31 -8
0 -9 3 -42 6 -72 l7 -55 -30 28 c-36 34 -68 35 -89 2 l-17 -26 -19 21 c-24 25
-48 25 -80 0 -25 -19 -26 -19 -43 0 -25 28 -60 25 -86 -7 l-22 -28 9 75 c4 41
8 117 7 168 0 50 3 92 7 92 5 0 38 -20 73 -43z m282 -43 c14 -6 14 -8 -1 -25
-27 -30 -54 -19 -54 22 0 10 31 12 55 3z m-39 -239 c20 -30 20 -30 -29 -39
-37 -7 -38 -6 -32 16 9 27 24 48 36 48 5 0 16 -11 25 -25z m982 13 c7 -7 12
-22 12 -35 0 -20 -4 -23 -27 -17 -42 10 -49 21 -28 44 21 23 27 24 43 8z m257
-37 c-6 -5 -25 -12 -43 -16 -32 -7 -32 -6 -21 21 5 16 16 32 22 36 16 10 55
-29 42 -41z m-1491 23 c9 -8 16 -22 16 -30 0 -16 -37 -19 -60 -4 -12 7 -12 12
4 29 23 25 21 25 40 5z m131 -14 l16 -30 -41 0 c-44 0 -47 5 -24 38 20 29 30
28 49 -8z m1233 5 c16 -36 17 -35 -28 -35 -43 0 -50 12 -23 42 22 25 38 23 51
-7z"/>
<path d="M3004 4523 c4 -4 25 -17 48 -28 65 -33 81 -63 88 -158 l5 -82 19 35
c44 78 15 189 -58 224 -33 16 -116 23 -102 9z"/>
<path d="M2666 4255 c-21 -20 -26 -33 -26 -75 0 -27 4 -50 8 -50 4 0 21 20 36
44 15 24 39 54 52 67 32 30 30 39 -10 39 -21 0 -42 -9 -60 -25z"/>
<path d="M6451 5018 c-5 -13 -147 -359 -315 -770 l-306 -747 310 -758 c171
-417 315 -762 320 -767 7 -7 10 550 10 1527 0 845 -2 1537 -5 1537 -3 0 -9
-10 -14 -22z"/>
<path d="M590 3501 c0 -844 2 -1532 4 -1530 2 2 144 347 316 767 l312 762
-307 753 c-169 413 -311 759 -316 767 -5 8 -9 -675 -9 -1519z"/>
<path d="M1330 3269 c-5 -13 -147 -359 -315 -769 -237 -580 -302 -747 -292
-756 17 -16 2609 -1495 2613 -1491 3 3 -1970 3015 -1985 3030 -7 7 -14 1 -21
-14z"/>
<path d="M4707 1773 c-547 -835 -993 -1519 -992 -1521 2 -2 593 333 1314 745
1029 587 1310 752 1307 765 -8 33 -621 1527 -627 1528 -4 0 -454 -683 -1002
-1517z"/>
</g>
</svg>
